<?xml version="1.0" encoding="utf-8" standalone="no"?>
<!DOCTYPE svg PUBLIC "-//W3C//DTD SVG 1.1//EN"
  "http://www.w3.org/Graphics/SVG/1.1/DTD/svg11.dtd">
<svg xmlns:xlink="http://www.w3.org/1999/xlink" width="864pt" height="576pt" viewBox="0 0 864 576" xmlns="http://www.w3.org/2000/svg" version="1.1">
 <metadata>
  <rdf:RDF xmlns:dc="http://purl.org/dc/elements/1.1/" xmlns:cc="http://creativecommons.org/ns#" xmlns:rdf="http://www.w3.org/1999/02/22-rdf-syntax-ns#">
   <cc:Work>
    <dc:type rdf:resource="http://purl.org/dc/dcmitype/StillImage"/>
    <dc:date>2024-10-01T15:06:37.641832</dc:date>
    <dc:format>image/svg+xml</dc:format>
    <dc:creator>
     <cc:Agent>
      <dc:title>Matplotlib v3.9.2, https://matplotlib.org/</dc:title>
     </cc:Agent>
    </dc:creator>
   </cc:Work>
  </rdf:RDF>
 </metadata>
 <defs>
  <style type="text/css">*{stroke-linejoin: round; stroke-linecap: butt}</style>
 </defs>
 <g id="figure_1">
  <g id="patch_1">
   <path d="M 0 576 
L 864 576 
L 864 0 
L 0 0 
z
" style="fill: #ffffff"/>
  </g>
  <g id="axes_1">
   <g id="patch_2">
    <path d="M 74.79 366.7616 
L 851.04 366.7616 
L 851.04 30.48 
L 74.79 30.48 
z
" style="fill: #ffffff"/>
   </g>
   <g id="matplotlib.axis_1">
    <g id="xtick_1">
     <g id="line2d_1">
      <path d="M 146.262902 366.7616 
L 146.262902 30.48 
" clip-path="url(#p9465a2f3dc)" style="fill: none; stroke: #cccccc; stroke-linecap: round"/>
     </g>
     <g id="text_1">
      <!-- llama3.1_8b-instruct-q4_0 -->
      <g style="fill: #262626" transform="translate(33.470974 493.500347) rotate(-45) scale(0.12 -0.12)">
       <defs>
        <path id="DejaVuSans-6c" d="M 603 4863 
L 1178 4863 
L 1178 0 
L 603 0 
L 603 4863 
z
" transform="scale(0.015625)"/>
        <path id="DejaVuSans-61" d="M 2194 1759 
Q 1497 1759 1228 1600 
Q 959 1441 959 1056 
Q 959 750 1161 570 
Q 1363 391 1709 391 
Q 2188 391 2477 730 
Q 2766 1069 2766 1631 
L 2766 1759 
L 2194 1759 
z
M 3341 1997 
L 3341 0 
L 2766 0 
L 2766 531 
Q 2569 213 2275 61 
Q 1981 -91 1556 -91 
Q 1019 -91 701 211 
Q 384 513 384 1019 
Q 384 1609 779 1909 
Q 1175 2209 1959 2209 
L 2766 2209 
L 2766 2266 
Q 2766 2663 2505 2880 
Q 2244 3097 1772 3097 
Q 1472 3097 1187 3025 
Q 903 2953 641 2809 
L 641 3341 
Q 956 3463 1253 3523 
Q 1550 3584 1831 3584 
Q 2591 3584 2966 3190 
Q 3341 2797 3341 1997 
z
" transform="scale(0.015625)"/>
        <path id="DejaVuSans-6d" d="M 3328 2828 
Q 3544 3216 3844 3400 
Q 4144 3584 4550 3584 
Q 5097 3584 5394 3201 
Q 5691 2819 5691 2113 
L 5691 0 
L 5113 0 
L 5113 2094 
Q 5113 2597 4934 2840 
Q 4756 3084 4391 3084 
Q 3944 3084 3684 2787 
Q 3425 2491 3425 1978 
L 3425 0 
L 2847 0 
L 2847 2094 
Q 2847 2600 2669 2842 
Q 2491 3084 2119 3084 
Q 1678 3084 1418 2786 
Q 1159 2488 1159 1978 
L 1159 0 
L 581 0 
L 581 3500 
L 1159 3500 
L 1159 2956 
Q 1356 3278 1631 3431 
Q 1906 3584 2284 3584 
Q 2666 3584 2933 3390 
Q 3200 3197 3328 2828 
z
" transform="scale(0.015625)"/>
        <path id="DejaVuSans-33" d="M 2597 2516 
Q 3050 2419 3304 2112 
Q 3559 1806 3559 1356 
Q 3559 666 3084 287 
Q 2609 -91 1734 -91 
Q 1441 -91 1130 -33 
Q 819 25 488 141 
L 488 750 
Q 750 597 1062 519 
Q 1375 441 1716 441 
Q 2309 441 2620 675 
Q 2931 909 2931 1356 
Q 2931 1769 2642 2001 
Q 2353 2234 1838 2234 
L 1294 2234 
L 1294 2753 
L 1863 2753 
Q 2328 2753 2575 2939 
Q 2822 3125 2822 3475 
Q 2822 3834 2567 4026 
Q 2313 4219 1838 4219 
Q 1578 4219 1281 4162 
Q 984 4106 628 3988 
L 628 4550 
Q 988 4650 1302 4700 
Q 1616 4750 1894 4750 
Q 2613 4750 3031 4423 
Q 3450 4097 3450 3541 
Q 3450 3153 3228 2886 
Q 3006 2619 2597 2516 
z
" transform="scale(0.015625)"/>
        <path id="DejaVuSans-2e" d="M 684 794 
L 1344 794 
L 1344 0 
L 684 0 
L 684 794 
z
" transform="scale(0.015625)"/>
        <path id="DejaVuSans-31" d="M 794 531 
L 1825 531 
L 1825 4091 
L 703 3866 
L 703 4441 
L 1819 4666 
L 2450 4666 
L 2450 531 
L 3481 531 
L 3481 0 
L 794 0 
L 794 531 
z
" transform="scale(0.015625)"/>
        <path id="DejaVuSans-5f" d="M 3263 -1063 
L 3263 -1509 
L -63 -1509 
L -63 -1063 
L 3263 -1063 
z
" transform="scale(0.015625)"/>
        <path id="DejaVuSans-38" d="M 2034 2216 
Q 1584 2216 1326 1975 
Q 1069 1734 1069 1313 
Q 1069 891 1326 650 
Q 1584 409 2034 409 
Q 2484 409 2743 651 
Q 3003 894 3003 1313 
Q 3003 1734 2745 1975 
Q 2488 2216 2034 2216 
z
M 1403 2484 
Q 997 2584 770 2862 
Q 544 3141 544 3541 
Q 544 4100 942 4425 
Q 1341 4750 2034 4750 
Q 2731 4750 3128 4425 
Q 3525 4100 3525 3541 
Q 3525 3141 3298 2862 
Q 3072 2584 2669 2484 
Q 3125 2378 3379 2068 
Q 3634 1759 3634 1313 
Q 3634 634 3220 271 
Q 2806 -91 2034 -91 
Q 1263 -91 848 271 
Q 434 634 434 1313 
Q 434 1759 690 2068 
Q 947 2378 1403 2484 
z
M 1172 3481 
Q 1172 3119 1398 2916 
Q 1625 2713 2034 2713 
Q 2441 2713 2670 2916 
Q 2900 3119 2900 3481 
Q 2900 3844 2670 4047 
Q 2441 4250 2034 4250 
Q 1625 4250 1398 4047 
Q 1172 3844 1172 3481 
z
" transform="scale(0.015625)"/>
        <path id="DejaVuSans-62" d="M 3116 1747 
Q 3116 2381 2855 2742 
Q 2594 3103 2138 3103 
Q 1681 3103 1420 2742 
Q 1159 2381 1159 1747 
Q 1159 1113 1420 752 
Q 1681 391 2138 391 
Q 2594 391 2855 752 
Q 3116 1113 3116 1747 
z
M 1159 2969 
Q 1341 3281 1617 3432 
Q 1894 3584 2278 3584 
Q 2916 3584 3314 3078 
Q 3713 2572 3713 1747 
Q 3713 922 3314 415 
Q 2916 -91 2278 -91 
Q 1894 -91 1617 61 
Q 1341 213 1159 525 
L 1159 0 
L 581 0 
L 581 4863 
L 1159 4863 
L 1159 2969 
z
" transform="scale(0.015625)"/>
        <path id="DejaVuSans-2d" d="M 313 2009 
L 1997 2009 
L 1997 1497 
L 313 1497 
L 313 2009 
z
" transform="scale(0.015625)"/>
        <path id="DejaVuSans-69" d="M 603 3500 
L 1178 3500 
L 1178 0 
L 603 0 
L 603 3500 
z
M 603 4863 
L 1178 4863 
L 1178 4134 
L 603 4134 
L 603 4863 
z
" transform="scale(0.015625)"/>
        <path id="DejaVuSans-6e" d="M 3513 2113 
L 3513 0 
L 2938 0 
L 2938 2094 
Q 2938 2591 2744 2837 
Q 2550 3084 2163 3084 
Q 1697 3084 1428 2787 
Q 1159 2491 1159 1978 
L 1159 0 
L 581 0 
L 581 3500 
L 1159 3500 
L 1159 2956 
Q 1366 3272 1645 3428 
Q 1925 3584 2291 3584 
Q 2894 3584 3203 3211 
Q 3513 2838 3513 2113 
z
" transform="scale(0.015625)"/>
        <path id="DejaVuSans-73" d="M 2834 3397 
L 2834 2853 
Q 2591 2978 2328 3040 
Q 2066 3103 1784 3103 
Q 1356 3103 1142 2972 
Q 928 2841 928 2578 
Q 928 2378 1081 2264 
Q 1234 2150 1697 2047 
L 1894 2003 
Q 2506 1872 2764 1633 
Q 3022 1394 3022 966 
Q 3022 478 2636 193 
Q 2250 -91 1575 -91 
Q 1294 -91 989 -36 
Q 684 19 347 128 
L 347 722 
Q 666 556 975 473 
Q 1284 391 1588 391 
Q 1994 391 2212 530 
Q 2431 669 2431 922 
Q 2431 1156 2273 1281 
Q 2116 1406 1581 1522 
L 1381 1569 
Q 847 1681 609 1914 
Q 372 2147 372 2553 
Q 372 3047 722 3315 
Q 1072 3584 1716 3584 
Q 2034 3584 2315 3537 
Q 2597 3491 2834 3397 
z
" transform="scale(0.015625)"/>
        <path id="DejaVuSans-74" d="M 1172 4494 
L 1172 3500 
L 2356 3500 
L 2356 3053 
L 1172 3053 
L 1172 1153 
Q 1172 725 1289 603 
Q 1406 481 1766 481 
L 2356 481 
L 2356 0 
L 1766 0 
Q 1100 0 847 248 
Q 594 497 594 1153 
L 594 3053 
L 172 3053 
L 172 3500 
L 594 3500 
L 594 4494 
L 1172 4494 
z
" transform="scale(0.015625)"/>
        <path id="DejaVuSans-72" d="M 2631 2963 
Q 2534 3019 2420 3045 
Q 2306 3072 2169 3072 
Q 1681 3072 1420 2755 
Q 1159 2438 1159 1844 
L 1159 0 
L 581 0 
L 581 3500 
L 1159 3500 
L 1159 2956 
Q 1341 3275 1631 3429 
Q 1922 3584 2338 3584 
Q 2397 3584 2469 3576 
Q 2541 3569 2628 3553 
L 2631 2963 
z
" transform="scale(0.015625)"/>
        <path id="DejaVuSans-75" d="M 544 1381 
L 544 3500 
L 1119 3500 
L 1119 1403 
Q 1119 906 1312 657 
Q 1506 409 1894 409 
Q 2359 409 2629 706 
Q 2900 1003 2900 1516 
L 2900 3500 
L 3475 3500 
L 3475 0 
L 2900 0 
L 2900 538 
Q 2691 219 2414 64 
Q 2138 -91 1772 -91 
Q 1169 -91 856 284 
Q 544 659 544 1381 
z
M 1991 3584 
L 1991 3584 
z
" transform="scale(0.015625)"/>
        <path id="DejaVuSans-63" d="M 3122 3366 
L 3122 2828 
Q 2878 2963 2633 3030 
Q 2388 3097 2138 3097 
Q 1578 3097 1268 2742 
Q 959 2388 959 1747 
Q 959 1106 1268 751 
Q 1578 397 2138 397 
Q 2388 397 2633 464 
Q 2878 531 3122 666 
L 3122 134 
Q 2881 22 2623 -34 
Q 2366 -91 2075 -91 
Q 1284 -91 818 406 
Q 353 903 353 1747 
Q 353 2603 823 3093 
Q 1294 3584 2113 3584 
Q 2378 3584 2631 3529 
Q 2884 3475 3122 3366 
z
" transform="scale(0.015625)"/>
        <path id="DejaVuSans-71" d="M 947 1747 
Q 947 1113 1208 752 
Q 1469 391 1925 391 
Q 2381 391 2643 752 
Q 2906 1113 2906 1747 
Q 2906 2381 2643 2742 
Q 2381 3103 1925 3103 
Q 1469 3103 1208 2742 
Q 947 2381 947 1747 
z
M 2906 525 
Q 2725 213 2448 61 
Q 2172 -91 1784 -91 
Q 1150 -91 751 415 
Q 353 922 353 1747 
Q 353 2572 751 3078 
Q 1150 3584 1784 3584 
Q 2172 3584 2448 3432 
Q 2725 3281 2906 2969 
L 2906 3500 
L 3481 3500 
L 3481 -1331 
L 2906 -1331 
L 2906 525 
z
" transform="scale(0.015625)"/>
        <path id="DejaVuSans-34" d="M 2419 4116 
L 825 1625 
L 2419 1625 
L 2419 4116 
z
M 2253 4666 
L 3047 4666 
L 3047 1625 
L 3713 1625 
L 3713 1100 
L 3047 1100 
L 3047 0 
L 2419 0 
L 2419 1100 
L 313 1100 
L 313 1709 
L 2253 4666 
z
" transform="scale(0.015625)"/>
        <path id="DejaVuSans-30" d="M 2034 4250 
Q 1547 4250 1301 3770 
Q 1056 3291 1056 2328 
Q 1056 1369 1301 889 
Q 1547 409 2034 409 
Q 2525 409 2770 889 
Q 3016 1369 3016 2328 
Q 3016 3291 2770 3770 
Q 2525 4250 2034 4250 
z
M 2034 4750 
Q 2819 4750 3233 4129 
Q 3647 3509 3647 2328 
Q 3647 1150 3233 529 
Q 2819 -91 2034 -91 
Q 1250 -91 836 529 
Q 422 1150 422 2328 
Q 422 3509 836 4129 
Q 1250 4750 2034 4750 
z
" transform="scale(0.015625)"/>
       </defs>
       <use xlink:href="#DejaVuSans-6c"/>
       <use xlink:href="#DejaVuSans-6c" x="27.783203"/>
       <use xlink:href="#DejaVuSans-61" x="55.566406"/>
       <use xlink:href="#DejaVuSans-6d" x="116.845703"/>
       <use xlink:href="#DejaVuSans-61" x="214.257812"/>
       <use xlink:href="#DejaVuSans-33" x="275.537109"/>
       <use xlink:href="#DejaVuSans-2e" x="339.160156"/>
       <use xlink:href="#DejaVuSans-31" x="370.947266"/>
       <use xlink:href="#DejaVuSans-5f" x="434.570312"/>
       <use xlink:href="#DejaVuSans-38" x="484.570312"/>
       <use xlink:href="#DejaVuSans-62" x="548.193359"/>
       <use xlink:href="#DejaVuSans-2d" x="611.669922"/>
       <use xlink:href="#DejaVuSans-69" x="647.753906"/>
       <use xlink:href="#DejaVuSans-6e" x="675.537109"/>
       <use xlink:href="#DejaVuSans-73" x="738.916016"/>
       <use xlink:href="#DejaVuSans-74" x="791.015625"/>
       <use xlink:href="#DejaVuSans-72" x="830.224609"/>
       <use xlink:href="#DejaVuSans-75" x="871.337891"/>
       <use xlink:href="#DejaVuSans-63" x="934.716797"/>
       <use xlink:href="#DejaVuSans-74" x="989.697266"/>
       <use xlink:href="#DejaVuSans-2d" x="1028.90625"/>
       <use xlink:href="#DejaVuSans-71" x="1064.990234"/>
       <use xlink:href="#DejaVuSans-34" x="1128.466797"/>
       <use xlink:href="#DejaVuSans-5f" x="1192.089844"/>
       <use xlink:href="#DejaVuSans-30" x="1242.089844"/>
      </g>
     </g>
    </g>
    <g id="xtick_2">
     <g id="line2d_2">
      <path d="M 236.73493 366.7616 
L 236.73493 30.48 
" clip-path="url(#p9465a2f3dc)" style="fill: none; stroke: #cccccc; stroke-linecap: round"/>
     </g>
     <g id="text_2">
      <!-- llama3.1_8b-instruct-fp16 -->
      <g style="fill: #262626" transform="translate(125.198558 492.24479) rotate(-45) scale(0.12 -0.12)">
       <defs>
        <path id="DejaVuSans-66" d="M 2375 4863 
L 2375 4384 
L 1825 4384 
Q 1516 4384 1395 4259 
Q 1275 4134 1275 3809 
L 1275 3500 
L 2222 3500 
L 2222 3053 
L 1275 3053 
L 1275 0 
L 697 0 
L 697 3053 
L 147 3053 
L 147 3500 
L 697 3500 
L 697 3744 
Q 697 4328 969 4595 
Q 1241 4863 1831 4863 
L 2375 4863 
z
" transform="scale(0.015625)"/>
        <path id="DejaVuSans-70" d="M 1159 525 
L 1159 -1331 
L 581 -1331 
L 581 3500 
L 1159 3500 
L 1159 2969 
Q 1341 3281 1617 3432 
Q 1894 3584 2278 3584 
Q 2916 3584 3314 3078 
Q 3713 2572 3713 1747 
Q 3713 922 3314 415 
Q 2916 -91 2278 -91 
Q 1894 -91 1617 61 
Q 1341 213 1159 525 
z
M 3116 1747 
Q 3116 2381 2855 2742 
Q 2594 3103 2138 3103 
Q 1681 3103 1420 2742 
Q 1159 2381 1159 1747 
Q 1159 1113 1420 752 
Q 1681 391 2138 391 
Q 2594 391 2855 752 
Q 3116 1113 3116 1747 
z
" transform="scale(0.015625)"/>
        <path id="DejaVuSans-36" d="M 2113 2584 
Q 1688 2584 1439 2293 
Q 1191 2003 1191 1497 
Q 1191 994 1439 701 
Q 1688 409 2113 409 
Q 2538 409 2786 701 
Q 3034 994 3034 1497 
Q 3034 2003 2786 2293 
Q 2538 2584 2113 2584 
z
M 3366 4563 
L 3366 3988 
Q 3128 4100 2886 4159 
Q 2644 4219 2406 4219 
Q 1781 4219 1451 3797 
Q 1122 3375 1075 2522 
Q 1259 2794 1537 2939 
Q 1816 3084 2150 3084 
Q 2853 3084 3261 2657 
Q 3669 2231 3669 1497 
Q 3669 778 3244 343 
Q 2819 -91 2113 -91 
Q 1303 -91 875 529 
Q 447 1150 447 2328 
Q 447 3434 972 4092 
Q 1497 4750 2381 4750 
Q 2619 4750 2861 4703 
Q 3103 4656 3366 4563 
z
" transform="scale(0.015625)"/>
       </defs>
       <use xlink:href="#DejaVuSans-6c"/>
       <use xlink:href="#DejaVuSans-6c" x="27.783203"/>
       <use xlink:href="#DejaVuSans-61" x="55.566406"/>
       <use xlink:href="#DejaVuSans-6d" x="116.845703"/>
       <use xlink:href="#DejaVuSans-61" x="214.257812"/>
       <use xlink:href="#DejaVuSans-33" x="275.537109"/>
       <use xlink:href="#DejaVuSans-2e" x="339.160156"/>
       <use xlink:href="#DejaVuSans-31" x="370.947266"/>
       <use xlink:href="#DejaVuSans-5f" x="434.570312"/>
       <use xlink:href="#DejaVuSans-38" x="484.570312"/>
       <use xlink:href="#DejaVuSans-62" x="548.193359"/>
       <use xlink:href="#DejaVuSans-2d" x="611.669922"/>
       <use xlink:href="#DejaVuSans-69" x="647.753906"/>
       <use xlink:href="#DejaVuSans-6e" x="675.537109"/>
       <use xlink:href="#DejaVuSans-73" x="738.916016"/>
       <use xlink:href="#DejaVuSans-74" x="791.015625"/>
       <use xlink:href="#DejaVuSans-72" x="830.224609"/>
       <use xlink:href="#DejaVuSans-75" x="871.337891"/>
       <use xlink:href="#DejaVuSans-63" x="934.716797"/>
       <use xlink:href="#DejaVuSans-74" x="989.697266"/>
       <use xlink:href="#DejaVuSans-2d" x="1028.90625"/>
       <use xlink:href="#DejaVuSans-66" x="1064.990234"/>
       <use xlink:href="#DejaVuSans-70" x="1100.195312"/>
       <use xlink:href="#DejaVuSans-31" x="1163.671875"/>
       <use xlink:href="#DejaVuSans-36" x="1227.294922"/>
      </g>
     </g>
    </g>
    <g id="xtick_3">
     <g id="line2d_3">
      <path d="M 327.206958 366.7616 
L 327.206958 30.48 
" clip-path="url(#p9465a2f3dc)" style="fill: none; stroke: #cccccc; stroke-linecap: round"/>
     </g>
     <g id="text_3">
      <!-- gemma2_9b-instruct-q4_0 -->
      <g style="fill: #262626" transform="translate(213.551917 494.363459) rotate(-45) scale(0.12 -0.12)">
       <defs>
        <path id="DejaVuSans-67" d="M 2906 1791 
Q 2906 2416 2648 2759 
Q 2391 3103 1925 3103 
Q 1463 3103 1205 2759 
Q 947 2416 947 1791 
Q 947 1169 1205 825 
Q 1463 481 1925 481 
Q 2391 481 2648 825 
Q 2906 1169 2906 1791 
z
M 3481 434 
Q 3481 -459 3084 -895 
Q 2688 -1331 1869 -1331 
Q 1566 -1331 1297 -1286 
Q 1028 -1241 775 -1147 
L 775 -588 
Q 1028 -725 1275 -790 
Q 1522 -856 1778 -856 
Q 2344 -856 2625 -561 
Q 2906 -266 2906 331 
L 2906 616 
Q 2728 306 2450 153 
Q 2172 0 1784 0 
Q 1141 0 747 490 
Q 353 981 353 1791 
Q 353 2603 747 3093 
Q 1141 3584 1784 3584 
Q 2172 3584 2450 3431 
Q 2728 3278 2906 2969 
L 2906 3500 
L 3481 3500 
L 3481 434 
z
" transform="scale(0.015625)"/>
        <path id="DejaVuSans-65" d="M 3597 1894 
L 3597 1613 
L 953 1613 
Q 991 1019 1311 708 
Q 1631 397 2203 397 
Q 2534 397 2845 478 
Q 3156 559 3463 722 
L 3463 178 
Q 3153 47 2828 -22 
Q 2503 -91 2169 -91 
Q 1331 -91 842 396 
Q 353 884 353 1716 
Q 353 2575 817 3079 
Q 1281 3584 2069 3584 
Q 2775 3584 3186 3129 
Q 3597 2675 3597 1894 
z
M 3022 2063 
Q 3016 2534 2758 2815 
Q 2500 3097 2075 3097 
Q 1594 3097 1305 2825 
Q 1016 2553 972 2059 
L 3022 2063 
z
" transform="scale(0.015625)"/>
        <path id="DejaVuSans-32" d="M 1228 531 
L 3431 531 
L 3431 0 
L 469 0 
L 469 531 
Q 828 903 1448 1529 
Q 2069 2156 2228 2338 
Q 2531 2678 2651 2914 
Q 2772 3150 2772 3378 
Q 2772 3750 2511 3984 
Q 2250 4219 1831 4219 
Q 1534 4219 1204 4116 
Q 875 4013 500 3803 
L 500 4441 
Q 881 4594 1212 4672 
Q 1544 4750 1819 4750 
Q 2544 4750 2975 4387 
Q 3406 4025 3406 3419 
Q 3406 3131 3298 2873 
Q 3191 2616 2906 2266 
Q 2828 2175 2409 1742 
Q 1991 1309 1228 531 
z
" transform="scale(0.015625)"/>
        <path id="DejaVuSans-39" d="M 703 97 
L 703 672 
Q 941 559 1184 500 
Q 1428 441 1663 441 
Q 2288 441 2617 861 
Q 2947 1281 2994 2138 
Q 2813 1869 2534 1725 
Q 2256 1581 1919 1581 
Q 1219 1581 811 2004 
Q 403 2428 403 3163 
Q 403 3881 828 4315 
Q 1253 4750 1959 4750 
Q 2769 4750 3195 4129 
Q 3622 3509 3622 2328 
Q 3622 1225 3098 567 
Q 2575 -91 1691 -91 
Q 1453 -91 1209 -44 
Q 966 3 703 97 
z
M 1959 2075 
Q 2384 2075 2632 2365 
Q 2881 2656 2881 3163 
Q 2881 3666 2632 3958 
Q 2384 4250 1959 4250 
Q 1534 4250 1286 3958 
Q 1038 3666 1038 3163 
Q 1038 2656 1286 2365 
Q 1534 2075 1959 2075 
z
" transform="scale(0.015625)"/>
       </defs>
       <use xlink:href="#DejaVuSans-67"/>
       <use xlink:href="#DejaVuSans-65" x="63.476562"/>
       <use xlink:href="#DejaVuSans-6d" x="125"/>
       <use xlink:href="#DejaVuSans-6d" x="222.412109"/>
       <use xlink:href="#DejaVuSans-61" x="319.824219"/>
       <use xlink:href="#DejaVuSans-32" x="381.103516"/>
       <use xlink:href="#DejaVuSans-5f" x="444.726562"/>
       <use xlink:href="#DejaVuSans-39" x="494.726562"/>
       <use xlink:href="#DejaVuSans-62" x="558.349609"/>
       <use xlink:href="#DejaVuSans-2d" x="621.826172"/>
       <use xlink:href="#DejaVuSans-69" x="657.910156"/>
       <use xlink:href="#DejaVuSans-6e" x="685.693359"/>
       <use xlink:href="#DejaVuSans-73" x="749.072266"/>
       <use xlink:href="#DejaVuSans-74" x="801.171875"/>
       <use xlink:href="#DejaVuSans-72" x="840.380859"/>
       <use xlink:href="#DejaVuSans-75" x="881.494141"/>
       <use xlink:href="#DejaVuSans-63" x="944.873047"/>
       <use xlink:href="#DejaVuSans-74" x="999.853516"/>
       <use xlink:href="#DejaVuSans-2d" x="1039.0625"/>
       <use xlink:href="#DejaVuSans-71" x="1075.146484"/>
       <use xlink:href="#DejaVuSans-34" x="1138.623047"/>
       <use xlink:href="#DejaVuSans-5f" x="1202.246094"/>
       <use xlink:href="#DejaVuSans-30" x="1252.246094"/>
      </g>
     </g>
    </g>
    <g id="xtick_4">
     <g id="line2d_4">
      <path d="M 417.678986 366.7616 
L 417.678986 30.48 
" clip-path="url(#p9465a2f3dc)" style="fill: none; stroke: #cccccc; stroke-linecap: round"/>
     </g>
     <g id="text_4">
      <!-- gemma2_27b-instruct-q4_0 -->
      <g style="fill: #262626" transform="translate(298.625185 499.762219) rotate(-45) scale(0.12 -0.12)">
       <defs>
        <path id="DejaVuSans-37" d="M 525 4666 
L 3525 4666 
L 3525 4397 
L 1831 0 
L 1172 0 
L 2766 4134 
L 525 4134 
L 525 4666 
z
" transform="scale(0.015625)"/>
       </defs>
       <use xlink:href="#DejaVuSans-67"/>
       <use xlink:href="#DejaVuSans-65" x="63.476562"/>
       <use xlink:href="#DejaVuSans-6d" x="125"/>
       <use xlink:href="#DejaVuSans-6d" x="222.412109"/>
       <use xlink:href="#DejaVuSans-61" x="319.824219"/>
       <use xlink:href="#DejaVuSans-32" x="381.103516"/>
       <use xlink:href="#DejaVuSans-5f" x="444.726562"/>
       <use xlink:href="#DejaVuSans-32" x="494.726562"/>
       <use xlink:href="#DejaVuSans-37" x="558.349609"/>
       <use xlink:href="#DejaVuSans-62" x="621.972656"/>
       <use xlink:href="#DejaVuSans-2d" x="685.449219"/>
       <use xlink:href="#DejaVuSans-69" x="721.533203"/>
       <use xlink:href="#DejaVuSans-6e" x="749.316406"/>
       <use xlink:href="#DejaVuSans-73" x="812.695312"/>
       <use xlink:href="#DejaVuSans-74" x="864.794922"/>
       <use xlink:href="#DejaVuSans-72" x="904.003906"/>
       <use xlink:href="#DejaVuSans-75" x="945.117188"/>
       <use xlink:href="#DejaVuSans-63" x="1008.496094"/>
       <use xlink:href="#DejaVuSans-74" x="1063.476562"/>
       <use xlink:href="#DejaVuSans-2d" x="1102.685547"/>
       <use xlink:href="#DejaVuSans-71" x="1138.769531"/>
       <use xlink:href="#DejaVuSans-34" x="1202.246094"/>
       <use xlink:href="#DejaVuSans-5f" x="1265.869141"/>
       <use xlink:href="#DejaVuSans-30" x="1315.869141"/>
      </g>
     </g>
    </g>
    <g id="xtick_5">
     <g id="line2d_5">
      <path d="M 508.151014 366.7616 
L 508.151014 30.48 
" clip-path="url(#p9465a2f3dc)" style="fill: none; stroke: #cccccc; stroke-linecap: round"/>
     </g>
     <g id="text_5">
      <!-- mistral-nemo_12b-instruct-2407-q4_0 -->
      <g style="fill: #262626" transform="translate(345.645943 543.213489) rotate(-45) scale(0.12 -0.12)">
       <defs>
        <path id="DejaVuSans-6f" d="M 1959 3097 
Q 1497 3097 1228 2736 
Q 959 2375 959 1747 
Q 959 1119 1226 758 
Q 1494 397 1959 397 
Q 2419 397 2687 759 
Q 2956 1122 2956 1747 
Q 2956 2369 2687 2733 
Q 2419 3097 1959 3097 
z
M 1959 3584 
Q 2709 3584 3137 3096 
Q 3566 2609 3566 1747 
Q 3566 888 3137 398 
Q 2709 -91 1959 -91 
Q 1206 -91 779 398 
Q 353 888 353 1747 
Q 353 2609 779 3096 
Q 1206 3584 1959 3584 
z
" transform="scale(0.015625)"/>
       </defs>
       <use xlink:href="#DejaVuSans-6d"/>
       <use xlink:href="#DejaVuSans-69" x="97.412109"/>
       <use xlink:href="#DejaVuSans-73" x="125.195312"/>
       <use xlink:href="#DejaVuSans-74" x="177.294922"/>
       <use xlink:href="#DejaVuSans-72" x="216.503906"/>
       <use xlink:href="#DejaVuSans-61" x="257.617188"/>
       <use xlink:href="#DejaVuSans-6c" x="318.896484"/>
       <use xlink:href="#DejaVuSans-2d" x="346.679688"/>
       <use xlink:href="#DejaVuSans-6e" x="382.763672"/>
       <use xlink:href="#DejaVuSans-65" x="446.142578"/>
       <use xlink:href="#DejaVuSans-6d" x="507.666016"/>
       <use xlink:href="#DejaVuSans-6f" x="605.078125"/>
       <use xlink:href="#DejaVuSans-5f" x="666.259766"/>
       <use xlink:href="#DejaVuSans-31" x="716.259766"/>
       <use xlink:href="#DejaVuSans-32" x="779.882812"/>
       <use xlink:href="#DejaVuSans-62" x="843.505859"/>
       <use xlink:href="#DejaVuSans-2d" x="906.982422"/>
       <use xlink:href="#DejaVuSans-69" x="943.066406"/>
       <use xlink:href="#DejaVuSans-6e" x="970.849609"/>
       <use xlink:href="#DejaVuSans-73" x="1034.228516"/>
       <use xlink:href="#DejaVuSans-74" x="1086.328125"/>
       <use xlink:href="#DejaVuSans-72" x="1125.537109"/>
       <use xlink:href="#DejaVuSans-75" x="1166.650391"/>
       <use xlink:href="#DejaVuSans-63" x="1230.029297"/>
       <use xlink:href="#DejaVuSans-74" x="1285.009766"/>
       <use xlink:href="#DejaVuSans-2d" x="1324.21875"/>
       <use xlink:href="#DejaVuSans-32" x="1360.302734"/>
       <use xlink:href="#DejaVuSans-34" x="1423.925781"/>
       <use xlink:href="#DejaVuSans-30" x="1487.548828"/>
       <use xlink:href="#DejaVuSans-37" x="1551.171875"/>
       <use xlink:href="#DejaVuSans-2d" x="1614.794922"/>
       <use xlink:href="#DejaVuSans-71" x="1650.878906"/>
       <use xlink:href="#DejaVuSans-34" x="1714.355469"/>
       <use xlink:href="#DejaVuSans-5f" x="1777.978516"/>
       <use xlink:href="#DejaVuSans-30" x="1827.978516"/>
      </g>
     </g>
    </g>
    <g id="xtick_6">
     <g id="line2d_6">
      <path d="M 598.623042 366.7616 
L 598.623042 30.48 
" clip-path="url(#p9465a2f3dc)" style="fill: none; stroke: #cccccc; stroke-linecap: round"/>
     </g>
     <g id="text_6">
      <!-- mixtral_instruct -->
      <g style="fill: #262626" transform="translate(530.02352 449.307941) rotate(-45) scale(0.12 -0.12)">
       <defs>
        <path id="DejaVuSans-78" d="M 3513 3500 
L 2247 1797 
L 3578 0 
L 2900 0 
L 1881 1375 
L 863 0 
L 184 0 
L 1544 1831 
L 300 3500 
L 978 3500 
L 1906 2253 
L 2834 3500 
L 3513 3500 
z
" transform="scale(0.015625)"/>
       </defs>
       <use xlink:href="#DejaVuSans-6d"/>
       <use xlink:href="#DejaVuSans-69" x="97.412109"/>
       <use xlink:href="#DejaVuSans-78" x="125.195312"/>
       <use xlink:href="#DejaVuSans-74" x="184.375"/>
       <use xlink:href="#DejaVuSans-72" x="223.583984"/>
       <use xlink:href="#DejaVuSans-61" x="264.697266"/>
       <use xlink:href="#DejaVuSans-6c" x="325.976562"/>
       <use xlink:href="#DejaVuSans-5f" x="353.759766"/>
       <use xlink:href="#DejaVuSans-69" x="403.759766"/>
       <use xlink:href="#DejaVuSans-6e" x="431.542969"/>
       <use xlink:href="#DejaVuSans-73" x="494.921875"/>
       <use xlink:href="#DejaVuSans-74" x="547.021484"/>
       <use xlink:href="#DejaVuSans-72" x="586.230469"/>
       <use xlink:href="#DejaVuSans-75" x="627.34375"/>
       <use xlink:href="#DejaVuSans-63" x="690.722656"/>
       <use xlink:href="#DejaVuSans-74" x="745.703125"/>
      </g>
     </g>
    </g>
    <g id="xtick_7">
     <g id="line2d_7">
      <path d="M 689.09507 366.7616 
L 689.09507 30.48 
" clip-path="url(#p9465a2f3dc)" style="fill: none; stroke: #cccccc; stroke-linecap: round"/>
     </g>
     <g id="text_7">
      <!-- phi3_14b-medium-128k-instruct-q4_0 -->
      <g style="fill: #262626" transform="translate(527.152149 542.651339) rotate(-45) scale(0.12 -0.12)">
       <defs>
        <path id="DejaVuSans-68" d="M 3513 2113 
L 3513 0 
L 2938 0 
L 2938 2094 
Q 2938 2591 2744 2837 
Q 2550 3084 2163 3084 
Q 1697 3084 1428 2787 
Q 1159 2491 1159 1978 
L 1159 0 
L 581 0 
L 581 4863 
L 1159 4863 
L 1159 2956 
Q 1366 3272 1645 3428 
Q 1925 3584 2291 3584 
Q 2894 3584 3203 3211 
Q 3513 2838 3513 2113 
z
" transform="scale(0.015625)"/>
        <path id="DejaVuSans-64" d="M 2906 2969 
L 2906 4863 
L 3481 4863 
L 3481 0 
L 2906 0 
L 2906 525 
Q 2725 213 2448 61 
Q 2172 -91 1784 -91 
Q 1150 -91 751 415 
Q 353 922 353 1747 
Q 353 2572 751 3078 
Q 1150 3584 1784 3584 
Q 2172 3584 2448 3432 
Q 2725 3281 2906 2969 
z
M 947 1747 
Q 947 1113 1208 752 
Q 1469 391 1925 391 
Q 2381 391 2643 752 
Q 2906 1113 2906 1747 
Q 2906 2381 2643 2742 
Q 2381 3103 1925 3103 
Q 1469 3103 1208 2742 
Q 947 2381 947 1747 
z
" transform="scale(0.015625)"/>
        <path id="DejaVuSans-6b" d="M 581 4863 
L 1159 4863 
L 1159 1991 
L 2875 3500 
L 3609 3500 
L 1753 1863 
L 3688 0 
L 2938 0 
L 1159 1709 
L 1159 0 
L 581 0 
L 581 4863 
z
" transform="scale(0.015625)"/>
       </defs>
       <use xlink:href="#DejaVuSans-70"/>
       <use xlink:href="#DejaVuSans-68" x="63.476562"/>
       <use xlink:href="#DejaVuSans-69" x="126.855469"/>
       <use xlink:href="#DejaVuSans-33" x="154.638672"/>
       <use xlink:href="#DejaVuSans-5f" x="218.261719"/>
       <use xlink:href="#DejaVuSans-31" x="268.261719"/>
       <use xlink:href="#DejaVuSans-34" x="331.884766"/>
       <use xlink:href="#DejaVuSans-62" x="395.507812"/>
       <use xlink:href="#DejaVuSans-2d" x="458.984375"/>
       <use xlink:href="#DejaVuSans-6d" x="495.068359"/>
       <use xlink:href="#DejaVuSans-65" x="592.480469"/>
       <use xlink:href="#DejaVuSans-64" x="654.003906"/>
       <use xlink:href="#DejaVuSans-69" x="717.480469"/>
       <use xlink:href="#DejaVuSans-75" x="745.263672"/>
       <use xlink:href="#DejaVuSans-6d" x="808.642578"/>
       <use xlink:href="#DejaVuSans-2d" x="906.054688"/>
       <use xlink:href="#DejaVuSans-31" x="942.138672"/>
       <use xlink:href="#DejaVuSans-32" x="1005.761719"/>
       <use xlink:href="#DejaVuSans-38" x="1069.384766"/>
       <use xlink:href="#DejaVuSans-6b" x="1133.007812"/>
       <use xlink:href="#DejaVuSans-2d" x="1190.917969"/>
       <use xlink:href="#DejaVuSans-69" x="1227.001953"/>
       <use xlink:href="#DejaVuSans-6e" x="1254.785156"/>
       <use xlink:href="#DejaVuSans-73" x="1318.164062"/>
       <use xlink:href="#DejaVuSans-74" x="1370.263672"/>
       <use xlink:href="#DejaVuSans-72" x="1409.472656"/>
       <use xlink:href="#DejaVuSans-75" x="1450.585938"/>
       <use xlink:href="#DejaVuSans-63" x="1513.964844"/>
       <use xlink:href="#DejaVuSans-74" x="1568.945312"/>
       <use xlink:href="#DejaVuSans-2d" x="1608.154297"/>
       <use xlink:href="#DejaVuSans-71" x="1644.238281"/>
       <use xlink:href="#DejaVuSans-34" x="1707.714844"/>
       <use xlink:href="#DejaVuSans-5f" x="1771.337891"/>
       <use xlink:href="#DejaVuSans-30" x="1821.337891"/>
      </g>
     </g>
    </g>
    <g id="xtick_8">
     <g id="line2d_8">
      <path d="M 779.567098 366.7616 
L 779.567098 30.48 
" clip-path="url(#p9465a2f3dc)" style="fill: none; stroke: #cccccc; stroke-linecap: round"/>
     </g>
     <g id="text_8">
      <!-- qwen2_7b-instruct-fp16 -->
      <g style="fill: #262626" transform="translate(676.580973 483.694543) rotate(-45) scale(0.12 -0.12)">
       <defs>
        <path id="DejaVuSans-77" d="M 269 3500 
L 844 3500 
L 1563 769 
L 2278 3500 
L 2956 3500 
L 3675 769 
L 4391 3500 
L 4966 3500 
L 4050 0 
L 3372 0 
L 2619 2869 
L 1863 0 
L 1184 0 
L 269 3500 
z
" transform="scale(0.015625)"/>
       </defs>
       <use xlink:href="#DejaVuSans-71"/>
       <use xlink:href="#DejaVuSans-77" x="63.476562"/>
       <use xlink:href="#DejaVuSans-65" x="145.263672"/>
       <use xlink:href="#DejaVuSans-6e" x="206.787109"/>
       <use xlink:href="#DejaVuSans-32" x="270.166016"/>
       <use xlink:href="#DejaVuSans-5f" x="333.789062"/>
       <use xlink:href="#DejaVuSans-37" x="383.789062"/>
       <use xlink:href="#DejaVuSans-62" x="447.412109"/>
       <use xlink:href="#DejaVuSans-2d" x="510.888672"/>
       <use xlink:href="#DejaVuSans-69" x="546.972656"/>
       <use xlink:href="#DejaVuSans-6e" x="574.755859"/>
       <use xlink:href="#DejaVuSans-73" x="638.134766"/>
       <use xlink:href="#DejaVuSans-74" x="690.234375"/>
       <use xlink:href="#DejaVuSans-72" x="729.443359"/>
       <use xlink:href="#DejaVuSans-75" x="770.556641"/>
       <use xlink:href="#DejaVuSans-63" x="833.935547"/>
       <use xlink:href="#DejaVuSans-74" x="888.916016"/>
       <use xlink:href="#DejaVuSans-2d" x="928.125"/>
       <use xlink:href="#DejaVuSans-66" x="964.208984"/>
       <use xlink:href="#DejaVuSans-70" x="999.414062"/>
       <use xlink:href="#DejaVuSans-31" x="1062.890625"/>
       <use xlink:href="#DejaVuSans-36" x="1126.513672"/>
      </g>
     </g>
    </g>
    <g id="text_9">
     <!-- Models -->
     <g style="fill: #262626" transform="translate(438.249844 559.851972) scale(0.14 -0.14)">
      <defs>
       <path id="DejaVuSans-4d" d="M 628 4666 
L 1569 4666 
L 2759 1491 
L 3956 4666 
L 4897 4666 
L 4897 0 
L 4281 0 
L 4281 4097 
L 3078 897 
L 2444 897 
L 1241 4097 
L 1241 0 
L 628 0 
L 628 4666 
z
" transform="scale(0.015625)"/>
      </defs>
      <use xlink:href="#DejaVuSans-4d"/>
      <use xlink:href="#DejaVuSans-6f" x="86.279297"/>
      <use xlink:href="#DejaVuSans-64" x="147.460938"/>
      <use xlink:href="#DejaVuSans-65" x="210.9375"/>
      <use xlink:href="#DejaVuSans-6c" x="272.460938"/>
      <use xlink:href="#DejaVuSans-73" x="300.244141"/>
     </g>
    </g>
   </g>
   <g id="matplotlib.axis_2">
    <g id="ytick_1">
     <g id="line2d_9">
      <path d="M 74.79 366.7616 
L 851.04 366.7616 
" clip-path="url(#p9465a2f3dc)" style="fill: none; stroke: #cccccc; stroke-linecap: round"/>
     </g>
     <g id="text_10">
      <!-- 0 -->
      <g style="fill: #262626" transform="translate(58.29125 370.940741) scale(0.11 -0.11)">
       <use xlink:href="#DejaVuSans-30"/>
      </g>
     </g>
    </g>
    <g id="ytick_2">
     <g id="line2d_10">
      <path d="M 74.79 300.253825 
L 851.04 300.253825 
" clip-path="url(#p9465a2f3dc)" style="fill: none; stroke: #cccccc; stroke-linecap: round"/>
     </g>
     <g id="text_11">
      <!-- 2000 -->
      <g style="fill: #262626" transform="translate(37.295 304.432966) scale(0.11 -0.11)">
       <use xlink:href="#DejaVuSans-32"/>
       <use xlink:href="#DejaVuSans-30" x="63.623047"/>
       <use xlink:href="#DejaVuSans-30" x="127.246094"/>
       <use xlink:href="#DejaVuSans-30" x="190.869141"/>
      </g>
     </g>
    </g>
    <g id="ytick_3">
     <g id="line2d_11">
      <path d="M 74.79 233.74605 
L 851.04 233.74605 
" clip-path="url(#p9465a2f3dc)" style="fill: none; stroke: #cccccc; stroke-linecap: round"/>
     </g>
     <g id="text_12">
      <!-- 4000 -->
      <g style="fill: #262626" transform="translate(37.295 237.925191) scale(0.11 -0.11)">
       <use xlink:href="#DejaVuSans-34"/>
       <use xlink:href="#DejaVuSans-30" x="63.623047"/>
       <use xlink:href="#DejaVuSans-30" x="127.246094"/>
       <use xlink:href="#DejaVuSans-30" x="190.869141"/>
      </g>
     </g>
    </g>
    <g id="ytick_4">
     <g id="line2d_12">
      <path d="M 74.79 167.238275 
L 851.04 167.238275 
" clip-path="url(#p9465a2f3dc)" style="fill: none; stroke: #cccccc; stroke-linecap: round"/>
     </g>
     <g id="text_13">
      <!-- 6000 -->
      <g style="fill: #262626" transform="translate(37.295 171.417416) scale(0.11 -0.11)">
       <use xlink:href="#DejaVuSans-36"/>
       <use xlink:href="#DejaVuSans-30" x="63.623047"/>
       <use xlink:href="#DejaVuSans-30" x="127.246094"/>
       <use xlink:href="#DejaVuSans-30" x="190.869141"/>
      </g>
     </g>
    </g>
    <g id="ytick_5">
     <g id="line2d_13">
      <path d="M 74.79 100.7305 
L 851.04 100.7305 
" clip-path="url(#p9465a2f3dc)" style="fill: none; stroke: #cccccc; stroke-linecap: round"/>
     </g>
     <g id="text_14">
      <!-- 8000 -->
      <g style="fill: #262626" transform="translate(37.295 104.909641) scale(0.11 -0.11)">
       <use xlink:href="#DejaVuSans-38"/>
       <use xlink:href="#DejaVuSans-30" x="63.623047"/>
       <use xlink:href="#DejaVuSans-30" x="127.246094"/>
       <use xlink:href="#DejaVuSans-30" x="190.869141"/>
      </g>
     </g>
    </g>
    <g id="ytick_6">
     <g id="line2d_14">
      <path d="M 74.79 34.222725 
L 851.04 34.222725 
" clip-path="url(#p9465a2f3dc)" style="fill: none; stroke: #cccccc; stroke-linecap: round"/>
     </g>
     <g id="text_15">
      <!-- 10000 -->
      <g style="fill: #262626" transform="translate(30.29625 38.401866) scale(0.11 -0.11)">
       <use xlink:href="#DejaVuSans-31"/>
       <use xlink:href="#DejaVuSans-30" x="63.623047"/>
       <use xlink:href="#DejaVuSans-30" x="127.246094"/>
       <use xlink:href="#DejaVuSans-30" x="190.869141"/>
       <use xlink:href="#DejaVuSans-30" x="254.492188"/>
      </g>
     </g>
    </g>
    <g id="text_16">
     <!-- Counts -->
     <g style="fill: #262626" transform="translate(23.384688 223.055175) rotate(-90) scale(0.14 -0.14)">
      <defs>
       <path id="DejaVuSans-43" d="M 4122 4306 
L 4122 3641 
Q 3803 3938 3442 4084 
Q 3081 4231 2675 4231 
Q 1875 4231 1450 3742 
Q 1025 3253 1025 2328 
Q 1025 1406 1450 917 
Q 1875 428 2675 428 
Q 3081 428 3442 575 
Q 3803 722 4122 1019 
L 4122 359 
Q 3791 134 3420 21 
Q 3050 -91 2638 -91 
Q 1578 -91 968 557 
Q 359 1206 359 2328 
Q 359 3453 968 4101 
Q 1578 4750 2638 4750 
Q 3056 4750 3426 4639 
Q 3797 4528 4122 4306 
z
" transform="scale(0.015625)"/>
      </defs>
      <use xlink:href="#DejaVuSans-43"/>
      <use xlink:href="#DejaVuSans-6f" x="69.824219"/>
      <use xlink:href="#DejaVuSans-75" x="131.005859"/>
      <use xlink:href="#DejaVuSans-6e" x="194.384766"/>
      <use xlink:href="#DejaVuSans-74" x="257.763672"/>
      <use xlink:href="#DejaVuSans-73" x="296.972656"/>
     </g>
    </g>
   </g>
   <g id="patch_3">
    <path d="M 110.074091 366.7616 
L 182.451713 366.7616 
L 182.451713 290.144644 
L 110.074091 290.144644 
z
" clip-path="url(#p9465a2f3dc)" style="fill: #008000; stroke: #ffffff; stroke-linejoin: miter"/>
   </g>
   <g id="patch_4">
    <path d="M 200.546119 366.7616 
L 272.923741 366.7616 
L 272.923741 279.736177 
L 200.546119 279.736177 
z
" clip-path="url(#p9465a2f3dc)" style="fill: #008000; stroke: #ffffff; stroke-linejoin: miter"/>
   </g>
   <g id="patch_5">
    <path d="M 291.018147 366.7616 
L 363.395769 366.7616 
L 363.395769 278.90483 
L 291.018147 278.90483 
z
" clip-path="url(#p9465a2f3dc)" style="fill: #008000; stroke: #ffffff; stroke-linejoin: miter"/>
   </g>
   <g id="patch_6">
    <path d="M 381.490175 366.7616 
L 453.867797 366.7616 
L 453.867797 276.876342 
L 381.490175 276.876342 
z
" clip-path="url(#p9465a2f3dc)" style="fill: #008000; stroke: #ffffff; stroke-linejoin: miter"/>
   </g>
   <g id="patch_7">
    <path d="M 471.962203 366.7616 
L 544.339825 366.7616 
L 544.339825 289.94512 
L 471.962203 289.94512 
z
" clip-path="url(#p9465a2f3dc)" style="fill: #008000; stroke: #ffffff; stroke-linejoin: miter"/>
   </g>
   <g id="patch_8">
    <path d="M 562.434231 366.7616 
L 634.811853 366.7616 
L 634.811853 289.280042 
L 562.434231 289.280042 
z
" clip-path="url(#p9465a2f3dc)" style="fill: #008000; stroke: #ffffff; stroke-linejoin: miter"/>
   </g>
   <g id="patch_9">
    <path d="M 652.906259 366.7616 
L 725.283881 366.7616 
L 725.283881 319.241795 
L 652.906259 319.241795 
z
" clip-path="url(#p9465a2f3dc)" style="fill: #008000; stroke: #ffffff; stroke-linejoin: miter"/>
   </g>
   <g id="patch_10">
    <path d="M 743.378287 366.7616 
L 815.755909 366.7616 
L 815.755909 291.441545 
L 743.378287 291.441545 
z
" clip-path="url(#p9465a2f3dc)" style="fill: #008000; stroke: #ffffff; stroke-linejoin: miter"/>
   </g>
   <g id="patch_11">
    <path d="M 110.074091 290.144644 
L 182.451713 290.144644 
L 182.451713 144.559124 
L 110.074091 144.559124 
z
" clip-path="url(#p9465a2f3dc)" style="fill: #ff0000; stroke: #ffffff; stroke-linejoin: miter"/>
   </g>
   <g id="patch_12">
    <path d="M 200.546119 279.736177 
L 272.923741 279.736177 
L 272.923741 124.374014 
L 200.546119 124.374014 
z
" clip-path="url(#p9465a2f3dc)" style="fill: #ff0000; stroke: #ffffff; stroke-linejoin: miter"/>
   </g>
   <g id="patch_13">
    <path d="M 291.018147 278.90483 
L 363.395769 278.90483 
L 363.395769 225.332817 
L 291.018147 225.332817 
z
" clip-path="url(#p9465a2f3dc)" style="fill: #ff0000; stroke: #ffffff; stroke-linejoin: miter"/>
   </g>
   <g id="patch_14">
    <path d="M 381.490175 276.876342 
L 453.867797 276.876342 
L 453.867797 213.860226 
L 381.490175 213.860226 
z
" clip-path="url(#p9465a2f3dc)" style="fill: #ff0000; stroke: #ffffff; stroke-linejoin: miter"/>
   </g>
   <g id="patch_15">
    <path d="M 471.962203 289.94512 
L 544.339825 289.94512 
L 544.339825 217.983708 
L 471.962203 217.983708 
z
" clip-path="url(#p9465a2f3dc)" style="fill: #ff0000; stroke: #ffffff; stroke-linejoin: miter"/>
   </g>
   <g id="patch_16">
    <path d="M 562.434231 289.280042 
L 634.811853 289.280042 
L 634.811853 193.375831 
L 562.434231 193.375831 
z
" clip-path="url(#p9465a2f3dc)" style="fill: #ff0000; stroke: #ffffff; stroke-linejoin: miter"/>
   </g>
   <g id="patch_17">
    <path d="M 652.906259 319.241795 
L 725.283881 319.241795 
L 725.283881 237.869532 
L 652.906259 237.869532 
z
" clip-path="url(#p9465a2f3dc)" style="fill: #ff0000; stroke: #ffffff; stroke-linejoin: miter"/>
   </g>
   <g id="patch_18">
    <path d="M 743.378287 291.441545 
L 815.755909 291.441545 
L 815.755909 124.972584 
L 743.378287 124.972584 
z
" clip-path="url(#p9465a2f3dc)" style="fill: #ff0000; stroke: #ffffff; stroke-linejoin: miter"/>
   </g>
   <g id="patch_19">
    <path d="M 110.074091 144.559124 
L 182.451713 144.559124 
L 182.451713 83.53824 
L 110.074091 83.53824 
z
" clip-path="url(#p9465a2f3dc)" style="fill: #ffa500; stroke: #ffffff; stroke-linejoin: miter"/>
   </g>
   <g id="patch_20">
    <path d="M 200.546119 124.374014 
L 272.923741 124.374014 
L 272.923741 62.32226 
L 200.546119 62.32226 
z
" clip-path="url(#p9465a2f3dc)" style="fill: #ffa500; stroke: #ffffff; stroke-linejoin: miter"/>
   </g>
   <g id="patch_21">
    <path d="M 291.018147 225.332817 
L 363.395769 225.332817 
L 363.395769 175.91754 
L 291.018147 175.91754 
z
" clip-path="url(#p9465a2f3dc)" style="fill: #ffa500; stroke: #ffffff; stroke-linejoin: miter"/>
   </g>
   <g id="patch_22">
    <path d="M 381.490175 213.860226 
L 453.867797 213.860226 
L 453.867797 157.760917 
L 381.490175 157.760917 
z
" clip-path="url(#p9465a2f3dc)" style="fill: #ffa500; stroke: #ffffff; stroke-linejoin: miter"/>
   </g>
   <g id="patch_23">
    <path d="M 471.962203 217.983708 
L 544.339825 217.983708 
L 544.339825 148.915383 
L 471.962203 148.915383 
z
" clip-path="url(#p9465a2f3dc)" style="fill: #ffa500; stroke: #ffffff; stroke-linejoin: miter"/>
   </g>
   <g id="patch_24">
    <path d="M 562.434231 193.375831 
L 634.811853 193.375831 
L 634.811853 118.089029 
L 562.434231 118.089029 
z
" clip-path="url(#p9465a2f3dc)" style="fill: #ffa500; stroke: #ffffff; stroke-linejoin: miter"/>
   </g>
   <g id="patch_25">
    <path d="M 652.906259 237.869532 
L 725.283881 237.869532 
L 725.283881 161.053052 
L 652.906259 161.053052 
z
" clip-path="url(#p9465a2f3dc)" style="fill: #ffa500; stroke: #ffffff; stroke-linejoin: miter"/>
   </g>
   <g id="patch_26">
    <path d="M 743.378287 124.972584 
L 815.755909 124.972584 
L 815.755909 46.49341 
L 743.378287 46.49341 
z
" clip-path="url(#p9465a2f3dc)" style="fill: #ffa500; stroke: #ffffff; stroke-linejoin: miter"/>
   </g>
   <g id="patch_27">
    <path d="M 74.79 366.7616 
L 74.79 30.48 
" style="fill: none; stroke: #cccccc; stroke-width: 1.25; stroke-linejoin: miter; stroke-linecap: square"/>
   </g>
   <g id="patch_28">
    <path d="M 851.04 366.7616 
L 851.04 30.48 
" style="fill: none; stroke: #cccccc; stroke-width: 1.25; stroke-linejoin: miter; stroke-linecap: square"/>
   </g>
   <g id="patch_29">
    <path d="M 74.79 366.7616 
L 851.04 366.7616 
" style="fill: none; stroke: #cccccc; stroke-width: 1.25; stroke-linejoin: miter; stroke-linecap: square"/>
   </g>
   <g id="patch_30">
    <path d="M 74.79 30.48 
L 851.04 30.48 
" style="fill: none; stroke: #cccccc; stroke-width: 1.25; stroke-linejoin: miter; stroke-linecap: square"/>
   </g>
   <g id="text_17">
    <!-- Confusion Matrix Components per Model (Annotated) -->
    <g style="fill: #262626" transform="translate(249.37125 24.48) scale(0.16 -0.16)">
     <defs>
      <path id="DejaVuSans-20" transform="scale(0.015625)"/>
      <path id="DejaVuSans-28" d="M 1984 4856 
Q 1566 4138 1362 3434 
Q 1159 2731 1159 2009 
Q 1159 1288 1364 580 
Q 1569 -128 1984 -844 
L 1484 -844 
Q 1016 -109 783 600 
Q 550 1309 550 2009 
Q 550 2706 781 3412 
Q 1013 4119 1484 4856 
L 1984 4856 
z
" transform="scale(0.015625)"/>
      <path id="DejaVuSans-41" d="M 2188 4044 
L 1331 1722 
L 3047 1722 
L 2188 4044 
z
M 1831 4666 
L 2547 4666 
L 4325 0 
L 3669 0 
L 3244 1197 
L 1141 1197 
L 716 0 
L 50 0 
L 1831 4666 
z
" transform="scale(0.015625)"/>
      <path id="DejaVuSans-29" d="M 513 4856 
L 1013 4856 
Q 1481 4119 1714 3412 
Q 1947 2706 1947 2009 
Q 1947 1309 1714 600 
Q 1481 -109 1013 -844 
L 513 -844 
Q 928 -128 1133 580 
Q 1338 1288 1338 2009 
Q 1338 2731 1133 3434 
Q 928 4138 513 4856 
z
" transform="scale(0.015625)"/>
     </defs>
     <use xlink:href="#DejaVuSans-43"/>
     <use xlink:href="#DejaVuSans-6f" x="69.824219"/>
     <use xlink:href="#DejaVuSans-6e" x="131.005859"/>
     <use xlink:href="#DejaVuSans-66" x="194.384766"/>
     <use xlink:href="#DejaVuSans-75" x="229.589844"/>
     <use xlink:href="#DejaVuSans-73" x="292.96875"/>
     <use xlink:href="#DejaVuSans-69" x="345.068359"/>
     <use xlink:href="#DejaVuSans-6f" x="372.851562"/>
     <use xlink:href="#DejaVuSans-6e" x="434.033203"/>
     <use xlink:href="#DejaVuSans-20" x="497.412109"/>
     <use xlink:href="#DejaVuSans-4d" x="529.199219"/>
     <use xlink:href="#DejaVuSans-61" x="615.478516"/>
     <use xlink:href="#DejaVuSans-74" x="676.757812"/>
     <use xlink:href="#DejaVuSans-72" x="715.966797"/>
     <use xlink:href="#DejaVuSans-69" x="757.080078"/>
     <use xlink:href="#DejaVuSans-78" x="784.863281"/>
     <use xlink:href="#DejaVuSans-20" x="844.042969"/>
     <use xlink:href="#DejaVuSans-43" x="875.830078"/>
     <use xlink:href="#DejaVuSans-6f" x="945.654297"/>
     <use xlink:href="#DejaVuSans-6d" x="1006.835938"/>
     <use xlink:href="#DejaVuSans-70" x="1104.248047"/>
     <use xlink:href="#DejaVuSans-6f" x="1167.724609"/>
     <use xlink:href="#DejaVuSans-6e" x="1228.90625"/>
     <use xlink:href="#DejaVuSans-65" x="1292.285156"/>
     <use xlink:href="#DejaVuSans-6e" x="1353.808594"/>
     <use xlink:href="#DejaVuSans-74" x="1417.1875"/>
     <use xlink:href="#DejaVuSans-73" x="1456.396484"/>
     <use xlink:href="#DejaVuSans-20" x="1508.496094"/>
     <use xlink:href="#DejaVuSans-70" x="1540.283203"/>
     <use xlink:href="#DejaVuSans-65" x="1603.759766"/>
     <use xlink:href="#DejaVuSans-72" x="1665.283203"/>
     <use xlink:href="#DejaVuSans-20" x="1706.396484"/>
     <use xlink:href="#DejaVuSans-4d" x="1738.183594"/>
     <use xlink:href="#DejaVuSans-6f" x="1824.462891"/>
     <use xlink:href="#DejaVuSans-64" x="1885.644531"/>
     <use xlink:href="#DejaVuSans-65" x="1949.121094"/>
     <use xlink:href="#DejaVuSans-6c" x="2010.644531"/>
     <use xlink:href="#DejaVuSans-20" x="2038.427734"/>
     <use xlink:href="#DejaVuSans-28" x="2070.214844"/>
     <use xlink:href="#DejaVuSans-41" x="2109.228516"/>
     <use xlink:href="#DejaVuSans-6e" x="2177.636719"/>
     <use xlink:href="#DejaVuSans-6e" x="2241.015625"/>
     <use xlink:href="#DejaVuSans-6f" x="2304.394531"/>
     <use xlink:href="#DejaVuSans-74" x="2365.576172"/>
     <use xlink:href="#DejaVuSans-61" x="2404.785156"/>
     <use xlink:href="#DejaVuSans-74" x="2466.064453"/>
     <use xlink:href="#DejaVuSans-65" x="2505.273438"/>
     <use xlink:href="#DejaVuSans-64" x="2566.796875"/>
     <use xlink:href="#DejaVuSans-29" x="2630.273438"/>
    </g>
   </g>
   <g id="legend_1">
    <g id="patch_31">
     <path d="M 396.689062 92.92125 
L 529.140938 92.92125 
Q 531.540938 92.92125 531.540938 90.52125 
L 531.540938 38.88 
Q 531.540938 36.48 529.140938 36.48 
L 396.689062 36.48 
Q 394.289062 36.48 394.289062 38.88 
L 394.289062 90.52125 
Q 394.289062 92.92125 396.689062 92.92125 
z
" style="fill: #ffffff; opacity: 0.8; stroke: #cccccc; stroke-linejoin: miter"/>
    </g>
    <g id="patch_32">
     <path d="M 399.089063 50.398125 
L 423.089063 50.398125 
L 423.089063 41.998125 
L 399.089063 41.998125 
z
" style="fill: #008000; stroke: #ffffff; stroke-linejoin: miter"/>
    </g>
    <g id="text_18">
     <!-- True Positives -->
     <g style="fill: #262626" transform="translate(432.689063 50.398125) scale(0.12 -0.12)">
      <defs>
       <path id="DejaVuSans-54" d="M -19 4666 
L 3928 4666 
L 3928 4134 
L 2272 4134 
L 2272 0 
L 1638 0 
L 1638 4134 
L -19 4134 
L -19 4666 
z
" transform="scale(0.015625)"/>
       <path id="DejaVuSans-50" d="M 1259 4147 
L 1259 2394 
L 2053 2394 
Q 2494 2394 2734 2622 
Q 2975 2850 2975 3272 
Q 2975 3691 2734 3919 
Q 2494 4147 2053 4147 
L 1259 4147 
z
M 628 4666 
L 2053 4666 
Q 2838 4666 3239 4311 
Q 3641 3956 3641 3272 
Q 3641 2581 3239 2228 
Q 2838 1875 2053 1875 
L 1259 1875 
L 1259 0 
L 628 0 
L 628 4666 
z
" transform="scale(0.015625)"/>
       <path id="DejaVuSans-76" d="M 191 3500 
L 800 3500 
L 1894 563 
L 2988 3500 
L 3597 3500 
L 2284 0 
L 1503 0 
L 191 3500 
z
" transform="scale(0.015625)"/>
      </defs>
      <use xlink:href="#DejaVuSans-54"/>
      <use xlink:href="#DejaVuSans-72" x="46.333984"/>
      <use xlink:href="#DejaVuSans-75" x="87.447266"/>
      <use xlink:href="#DejaVuSans-65" x="150.826172"/>
      <use xlink:href="#DejaVuSans-20" x="212.349609"/>
      <use xlink:href="#DejaVuSans-50" x="244.136719"/>
      <use xlink:href="#DejaVuSans-6f" x="300.814453"/>
      <use xlink:href="#DejaVuSans-73" x="361.996094"/>
      <use xlink:href="#DejaVuSans-69" x="414.095703"/>
      <use xlink:href="#DejaVuSans-74" x="441.878906"/>
      <use xlink:href="#DejaVuSans-69" x="481.087891"/>
      <use xlink:href="#DejaVuSans-76" x="508.871094"/>
      <use xlink:href="#DejaVuSans-65" x="568.050781"/>
      <use xlink:href="#DejaVuSans-73" x="629.574219"/>
     </g>
    </g>
    <g id="patch_33">
     <path d="M 399.089063 68.011875 
L 423.089063 68.011875 
L 423.089063 59.611875 
L 399.089063 59.611875 
z
" style="fill: #ff0000; stroke: #ffffff; stroke-linejoin: miter"/>
    </g>
    <g id="text_19">
     <!-- False Positives -->
     <g style="fill: #262626" transform="translate(432.689063 68.011875) scale(0.12 -0.12)">
      <defs>
       <path id="DejaVuSans-46" d="M 628 4666 
L 3309 4666 
L 3309 4134 
L 1259 4134 
L 1259 2759 
L 3109 2759 
L 3109 2228 
L 1259 2228 
L 1259 0 
L 628 0 
L 628 4666 
z
" transform="scale(0.015625)"/>
      </defs>
      <use xlink:href="#DejaVuSans-46"/>
      <use xlink:href="#DejaVuSans-61" x="48.394531"/>
      <use xlink:href="#DejaVuSans-6c" x="109.673828"/>
      <use xlink:href="#DejaVuSans-73" x="137.457031"/>
      <use xlink:href="#DejaVuSans-65" x="189.556641"/>
      <use xlink:href="#DejaVuSans-20" x="251.080078"/>
      <use xlink:href="#DejaVuSans-50" x="282.867188"/>
      <use xlink:href="#DejaVuSans-6f" x="339.544922"/>
      <use xlink:href="#DejaVuSans-73" x="400.726562"/>
      <use xlink:href="#DejaVuSans-69" x="452.826172"/>
      <use xlink:href="#DejaVuSans-74" x="480.609375"/>
      <use xlink:href="#DejaVuSans-69" x="519.818359"/>
      <use xlink:href="#DejaVuSans-76" x="547.601562"/>
      <use xlink:href="#DejaVuSans-65" x="606.78125"/>
      <use xlink:href="#DejaVuSans-73" x="668.304688"/>
     </g>
    </g>
    <g id="patch_34">
     <path d="M 399.089063 85.625625 
L 423.089063 85.625625 
L 423.089063 77.225625 
L 399.089063 77.225625 
z
" style="fill: #ffa500; stroke: #ffffff; stroke-linejoin: miter"/>
    </g>
    <g id="text_20">
     <!-- False Negatives -->
     <g style="fill: #262626" transform="translate(432.689063 85.625625) scale(0.12 -0.12)">
      <defs>
       <path id="DejaVuSans-4e" d="M 628 4666 
L 1478 4666 
L 3547 763 
L 3547 4666 
L 4159 4666 
L 4159 0 
L 3309 0 
L 1241 3903 
L 1241 0 
L 628 0 
L 628 4666 
z
" transform="scale(0.015625)"/>
      </defs>
      <use xlink:href="#DejaVuSans-46"/>
      <use xlink:href="#DejaVuSans-61" x="48.394531"/>
      <use xlink:href="#DejaVuSans-6c" x="109.673828"/>
      <use xlink:href="#DejaVuSans-73" x="137.457031"/>
      <use xlink:href="#DejaVuSans-65" x="189.556641"/>
      <use xlink:href="#DejaVuSans-20" x="251.080078"/>
      <use xlink:href="#DejaVuSans-4e" x="282.867188"/>
      <use xlink:href="#DejaVuSans-65" x="357.671875"/>
      <use xlink:href="#DejaVuSans-67" x="419.195312"/>
      <use xlink:href="#DejaVuSans-61" x="482.671875"/>
      <use xlink:href="#DejaVuSans-74" x="543.951172"/>
      <use xlink:href="#DejaVuSans-69" x="583.160156"/>
      <use xlink:href="#DejaVuSans-76" x="610.943359"/>
      <use xlink:href="#DejaVuSans-65" x="670.123047"/>
      <use xlink:href="#DejaVuSans-73" x="731.646484"/>
     </g>
    </g>
   </g>
  </g>
 </g>
 <defs>
  <clipPath id="p9465a2f3dc">
   <rect x="74.79" y="30.48" width="776.25" height="336.2816"/>
  </clipPath>
 </defs>
</svg>
